<svg xmlns="http://www.w3.org/2000/svg" viewBox="0 0 64 64" width="64" height="64">
  <defs>
    <linearGradient id="g" x1="0" y1="0" x2="0" y2="1">
      <stop offset="0%" stop-color="#fbeeb6"/>
      <stop offset="45%" stop-color="#e3c25e"/>
      <stop offset="100%" stop-color="#a9842b"/>
    </linearGradient>
    <radialGradient id="bg" cx="50%" cy="35%" r="75%">
      <stop offset="0%" stop-color="#1a1138"/>
      <stop offset="100%" stop-color="#07070d"/>
    </radialGradient>
  </defs>
  <rect width="64" height="64" rx="14" fill="url(#bg)"/>
  <g fill="url(#g)" stroke="#7a5e1e" stroke-width="1" stroke-linejoin="round">
    <!-- cornes -->
    <path d="M18 44 Q12 36 9.5 22 Q13 21 16 25 Q19 36 25 42 Z"/>
    <path d="M46 44 Q52 36 54.5 22 Q51 21 48 25 Q45 36 39 42 Z"/>
    <!-- gouttes -->
    <path d="M25 43 L22 23 Q24 18 27 17 Q30 18 32 23 L29 43 Z"/>
    <path d="M39 43 L36 23 Q38 18 41 17 Q44 18 46 23 L43 43 Z" transform="translate(-2,0)"/>
    <!-- pointe centrale -->
    <path d="M32 42 L24 24 Q28 14 32 6 Q36 14 40 24 Z"/>
    <!-- bandeau -->
    <path d="M16 42 Q32 36 48 42 L45.5 54 Q32 59 18.5 54 Z"/>
  </g>
  <path d="M32 16 L28 24 L32 32 L36 24 Z" fill="#34245c"/>
  <g fill="#34245c">
    <circle cx="25" cy="48" r="2"/><circle cx="32" cy="49" r="2.2"/><circle cx="39" cy="48" r="2"/>
  </g>
</svg>
